<mxfile host="Electron" modified="2023-12-07T16:27:07.952Z" agent="Mozilla/5.0 (Windows NT 10.0; Win64; x64) AppleWebKit/537.36 (KHTML, like Gecko) draw.io/22.0.3 Chrome/114.0.5735.289 Electron/25.8.4 Safari/537.36" etag="8F6PkzNMSDUrCxdHoSg-" version="22.0.3" type="device">
  <diagram id="2rGhk9S-BhAgbP9WORcz" name="Page-2">
    <mxGraphModel dx="1434" dy="844" grid="1" gridSize="10" guides="1" tooltips="1" connect="1" arrows="1" fold="1" page="1" pageScale="1" pageWidth="1169" pageHeight="827" math="0" shadow="0">
      <root>
        <mxCell id="0" />
        <mxCell id="1" parent="0" />
        <mxCell id="aDz3l9U_8TU9LJlqT8bB-20" style="edgeStyle=orthogonalEdgeStyle;rounded=0;orthogonalLoop=1;jettySize=auto;html=1;exitX=1;exitY=0.5;exitDx=0;exitDy=0;entryX=0.5;entryY=1;entryDx=0;entryDy=0;dashed=1;" parent="1" source="aDz3l9U_8TU9LJlqT8bB-1" target="aDz3l9U_8TU9LJlqT8bB-12" edge="1">
          <mxGeometry relative="1" as="geometry" />
        </mxCell>
        <mxCell id="aDz3l9U_8TU9LJlqT8bB-21" style="edgeStyle=orthogonalEdgeStyle;rounded=0;orthogonalLoop=1;jettySize=auto;html=1;exitX=1;exitY=0.5;exitDx=0;exitDy=0;entryX=0.5;entryY=1;entryDx=0;entryDy=0;dashed=1;" parent="1" source="aDz3l9U_8TU9LJlqT8bB-1" target="aDz3l9U_8TU9LJlqT8bB-16" edge="1">
          <mxGeometry relative="1" as="geometry" />
        </mxCell>
        <mxCell id="aDz3l9U_8TU9LJlqT8bB-25" style="edgeStyle=orthogonalEdgeStyle;rounded=0;orthogonalLoop=1;jettySize=auto;html=1;exitX=1;exitY=0.5;exitDx=0;exitDy=0;entryX=0.5;entryY=1;entryDx=0;entryDy=0;dashed=1;" parent="1" source="aDz3l9U_8TU9LJlqT8bB-1" target="aDz3l9U_8TU9LJlqT8bB-22" edge="1">
          <mxGeometry relative="1" as="geometry" />
        </mxCell>
        <mxCell id="aDz3l9U_8TU9LJlqT8bB-1" value="Alphabot 2" style="rounded=1;whiteSpace=wrap;html=1;fillColor=#f5f5f5;fontColor=#333333;strokeColor=#666666;" parent="1" vertex="1">
          <mxGeometry x="40" y="690" width="120" height="60" as="geometry" />
        </mxCell>
        <mxCell id="aDz3l9U_8TU9LJlqT8bB-7" style="edgeStyle=orthogonalEdgeStyle;rounded=0;orthogonalLoop=1;jettySize=auto;html=1;exitX=0.5;exitY=1;exitDx=0;exitDy=0;entryX=0.5;entryY=0;entryDx=0;entryDy=0;dashed=1;" parent="1" source="aDz3l9U_8TU9LJlqT8bB-2" target="aDz3l9U_8TU9LJlqT8bB-1" edge="1">
          <mxGeometry relative="1" as="geometry" />
        </mxCell>
        <mxCell id="aDz3l9U_8TU9LJlqT8bB-8" style="edgeStyle=orthogonalEdgeStyle;rounded=0;orthogonalLoop=1;jettySize=auto;html=1;exitX=0.5;exitY=0;exitDx=0;exitDy=0;entryX=0.5;entryY=1;entryDx=0;entryDy=0;dashed=1;" parent="1" source="aDz3l9U_8TU9LJlqT8bB-2" target="aDz3l9U_8TU9LJlqT8bB-6" edge="1">
          <mxGeometry relative="1" as="geometry" />
        </mxCell>
        <mxCell id="aDz3l9U_8TU9LJlqT8bB-15" value="" style="edgeStyle=orthogonalEdgeStyle;rounded=0;orthogonalLoop=1;jettySize=auto;html=1;entryX=0;entryY=0.5;entryDx=0;entryDy=0;dashed=1;" parent="1" source="aDz3l9U_8TU9LJlqT8bB-2" target="aDz3l9U_8TU9LJlqT8bB-14" edge="1">
          <mxGeometry relative="1" as="geometry" />
        </mxCell>
        <mxCell id="aDz3l9U_8TU9LJlqT8bB-2" value="Raspberry pi" style="whiteSpace=wrap;html=1;rounded=1;fillColor=#f5f5f5;fontColor=#333333;strokeColor=#666666;" parent="1" vertex="1">
          <mxGeometry x="40" y="390" width="120" height="60" as="geometry" />
        </mxCell>
        <mxCell id="aDz3l9U_8TU9LJlqT8bB-11" style="edgeStyle=orthogonalEdgeStyle;rounded=0;orthogonalLoop=1;jettySize=auto;html=1;exitX=0.5;exitY=0;exitDx=0;exitDy=0;entryX=0.5;entryY=1;entryDx=0;entryDy=0;dashed=1;" parent="1" source="aDz3l9U_8TU9LJlqT8bB-6" target="aDz3l9U_8TU9LJlqT8bB-9" edge="1">
          <mxGeometry relative="1" as="geometry" />
        </mxCell>
        <mxCell id="aDz3l9U_8TU9LJlqT8bB-6" value="Betriebsystem&amp;nbsp;&lt;br&gt;Ubuntu&lt;br/&gt;Server 22.04.3 LTS (64-bit)" style="rounded=0;whiteSpace=wrap;html=1;fillColor=#fad9d5;strokeColor=#ae4132;" parent="1" vertex="1">
          <mxGeometry x="40" y="270" width="120" height="60" as="geometry" />
        </mxCell>
        <mxCell id="aDz3l9U_8TU9LJlqT8bB-69" style="edgeStyle=orthogonalEdgeStyle;rounded=0;orthogonalLoop=1;jettySize=auto;html=1;exitX=1;exitY=0.5;exitDx=0;exitDy=0;entryX=0;entryY=0.5;entryDx=0;entryDy=0;dashed=1;" parent="1" source="aDz3l9U_8TU9LJlqT8bB-9" target="aDz3l9U_8TU9LJlqT8bB-63" edge="1">
          <mxGeometry relative="1" as="geometry" />
        </mxCell>
        <mxCell id="ki-zjodoaLn8A9avzpk7-4" style="edgeStyle=orthogonalEdgeStyle;rounded=0;orthogonalLoop=1;jettySize=auto;html=1;exitX=1;exitY=0.5;exitDx=0;exitDy=0;entryX=0;entryY=0.5;entryDx=0;entryDy=0;dashed=1;" edge="1" parent="1" source="aDz3l9U_8TU9LJlqT8bB-9" target="ki-zjodoaLn8A9avzpk7-3">
          <mxGeometry relative="1" as="geometry" />
        </mxCell>
        <mxCell id="ki-zjodoaLn8A9avzpk7-11" style="edgeStyle=orthogonalEdgeStyle;rounded=0;orthogonalLoop=1;jettySize=auto;html=1;entryX=0;entryY=0.5;entryDx=0;entryDy=0;dashed=1;" edge="1" parent="1" source="aDz3l9U_8TU9LJlqT8bB-9" target="aDz3l9U_8TU9LJlqT8bB-30">
          <mxGeometry relative="1" as="geometry">
            <Array as="points">
              <mxPoint x="180" y="180" />
              <mxPoint x="180" y="150" />
            </Array>
          </mxGeometry>
        </mxCell>
        <mxCell id="aDz3l9U_8TU9LJlqT8bB-9" value="Ros2 humble" style="rounded=0;whiteSpace=wrap;html=1;fillColor=#fad9d5;strokeColor=#ae4132;" parent="1" vertex="1">
          <mxGeometry x="40" y="150" width="120" height="60" as="geometry" />
        </mxCell>
        <mxCell id="aDz3l9U_8TU9LJlqT8bB-12" value="Servos" style="whiteSpace=wrap;html=1;rounded=1;fillColor=#f5f5f5;fontColor=#333333;strokeColor=#666666;" parent="1" vertex="1">
          <mxGeometry x="800" y="640" width="120" height="60" as="geometry" />
        </mxCell>
        <mxCell id="aDz3l9U_8TU9LJlqT8bB-14" value="Kammera" style="whiteSpace=wrap;html=1;rounded=1;fillColor=#f5f5f5;fontColor=#333333;strokeColor=#666666;" parent="1" vertex="1">
          <mxGeometry x="200" y="460" width="120" height="60" as="geometry" />
        </mxCell>
        <mxCell id="aDz3l9U_8TU9LJlqT8bB-16" value="Motoren" style="whiteSpace=wrap;html=1;rounded=1;fillColor=#f5f5f5;fontColor=#333333;strokeColor=#666666;" parent="1" vertex="1">
          <mxGeometry x="480" y="640" width="120" height="60" as="geometry" />
        </mxCell>
        <mxCell id="aDz3l9U_8TU9LJlqT8bB-78" style="edgeStyle=orthogonalEdgeStyle;rounded=0;orthogonalLoop=1;jettySize=auto;html=1;exitX=0.5;exitY=0;exitDx=0;exitDy=0;entryX=0.5;entryY=1;entryDx=0;entryDy=0;" parent="1" source="aDz3l9U_8TU9LJlqT8bB-22" target="aDz3l9U_8TU9LJlqT8bB-70" edge="1">
          <mxGeometry relative="1" as="geometry" />
        </mxCell>
        <mxCell id="aDz3l9U_8TU9LJlqT8bB-22" value="Joystick" style="rounded=1;whiteSpace=wrap;html=1;fillColor=#f5f5f5;fontColor=#333333;strokeColor=#666666;" parent="1" vertex="1">
          <mxGeometry x="640" y="640" width="120" height="60" as="geometry" />
        </mxCell>
        <mxCell id="aDz3l9U_8TU9LJlqT8bB-37" style="edgeStyle=orthogonalEdgeStyle;rounded=0;orthogonalLoop=1;jettySize=auto;html=1;exitX=0.5;exitY=1;exitDx=0;exitDy=0;entryX=0.5;entryY=0;entryDx=0;entryDy=0;" parent="1" source="aDz3l9U_8TU9LJlqT8bB-28" target="aDz3l9U_8TU9LJlqT8bB-14" edge="1">
          <mxGeometry relative="1" as="geometry" />
        </mxCell>
        <mxCell id="ki-zjodoaLn8A9avzpk7-5" style="edgeStyle=orthogonalEdgeStyle;rounded=0;orthogonalLoop=1;jettySize=auto;html=1;exitX=0.5;exitY=0;exitDx=0;exitDy=0;entryX=0.5;entryY=1;entryDx=0;entryDy=0;" edge="1" parent="1" source="aDz3l9U_8TU9LJlqT8bB-28" target="ki-zjodoaLn8A9avzpk7-1">
          <mxGeometry relative="1" as="geometry" />
        </mxCell>
        <mxCell id="aDz3l9U_8TU9LJlqT8bB-28" value="ros2_v4ls_camera" style="rounded=0;whiteSpace=wrap;html=1;fillColor=#b0e3e6;strokeColor=#0e8088;" parent="1" vertex="1">
          <mxGeometry x="200" y="360" width="120" height="60" as="geometry" />
        </mxCell>
        <mxCell id="aDz3l9U_8TU9LJlqT8bB-53" style="edgeStyle=orthogonalEdgeStyle;rounded=0;orthogonalLoop=1;jettySize=auto;html=1;exitX=0.75;exitY=1;exitDx=0;exitDy=0;entryX=0.75;entryY=0;entryDx=0;entryDy=0;" parent="1" source="aDz3l9U_8TU9LJlqT8bB-30" target="aDz3l9U_8TU9LJlqT8bB-31" edge="1">
          <mxGeometry relative="1" as="geometry">
            <mxPoint x="660" y="240" as="sourcePoint" />
            <mxPoint x="770" y="290" as="targetPoint" />
          </mxGeometry>
        </mxCell>
        <mxCell id="aDz3l9U_8TU9LJlqT8bB-30" value="cv_bridge" style="rounded=0;whiteSpace=wrap;html=1;fillColor=#dae8fc;strokeColor=#6c8ebf;" parent="1" vertex="1">
          <mxGeometry x="440" y="120" width="120" height="60" as="geometry" />
        </mxCell>
        <mxCell id="aDz3l9U_8TU9LJlqT8bB-44" style="edgeStyle=orthogonalEdgeStyle;rounded=0;orthogonalLoop=1;jettySize=auto;html=1;exitX=0.5;exitY=0;exitDx=0;exitDy=0;entryX=0.5;entryY=1;entryDx=0;entryDy=0;" parent="1" source="aDz3l9U_8TU9LJlqT8bB-31" target="aDz3l9U_8TU9LJlqT8bB-30" edge="1">
          <mxGeometry relative="1" as="geometry">
            <mxPoint x="750" y="290" as="sourcePoint" />
            <mxPoint x="680" y="340" as="targetPoint" />
          </mxGeometry>
        </mxCell>
        <mxCell id="aDz3l9U_8TU9LJlqT8bB-47" style="edgeStyle=orthogonalEdgeStyle;rounded=0;orthogonalLoop=1;jettySize=auto;html=1;entryX=0.5;entryY=0;entryDx=0;entryDy=0;exitX=0.5;exitY=1;exitDx=0;exitDy=0;" parent="1" source="aDz3l9U_8TU9LJlqT8bB-31" target="aDz3l9U_8TU9LJlqT8bB-32" edge="1">
          <mxGeometry relative="1" as="geometry">
            <mxPoint x="740" y="240" as="sourcePoint" />
          </mxGeometry>
        </mxCell>
        <mxCell id="ki-zjodoaLn8A9avzpk7-12" style="edgeStyle=orthogonalEdgeStyle;rounded=0;orthogonalLoop=1;jettySize=auto;html=1;exitX=1;exitY=0.5;exitDx=0;exitDy=0;entryX=0;entryY=0.5;entryDx=0;entryDy=0;" edge="1" parent="1" source="aDz3l9U_8TU9LJlqT8bB-31" target="ki-zjodoaLn8A9avzpk7-10">
          <mxGeometry relative="1" as="geometry" />
        </mxCell>
        <mxCell id="aDz3l9U_8TU9LJlqT8bB-31" value="camera_opencv" style="rounded=0;whiteSpace=wrap;html=1;fillColor=#d5e8d4;strokeColor=#82b366;" parent="1" vertex="1">
          <mxGeometry x="440" y="280" width="120" height="60" as="geometry" />
        </mxCell>
        <mxCell id="ki-zjodoaLn8A9avzpk7-14" style="edgeStyle=orthogonalEdgeStyle;rounded=0;orthogonalLoop=1;jettySize=auto;html=1;exitX=0.75;exitY=0;exitDx=0;exitDy=0;entryX=0.75;entryY=1;entryDx=0;entryDy=0;" edge="1" parent="1" source="aDz3l9U_8TU9LJlqT8bB-32" target="aDz3l9U_8TU9LJlqT8bB-31">
          <mxGeometry relative="1" as="geometry" />
        </mxCell>
        <mxCell id="aDz3l9U_8TU9LJlqT8bB-32" value="human_detection" style="rounded=0;whiteSpace=wrap;html=1;fillColor=#dae8fc;strokeColor=#6c8ebf;" parent="1" vertex="1">
          <mxGeometry x="440" y="400" width="120" height="60" as="geometry" />
        </mxCell>
        <mxCell id="ki-zjodoaLn8A9avzpk7-27" style="edgeStyle=orthogonalEdgeStyle;rounded=0;orthogonalLoop=1;jettySize=auto;html=1;exitX=1;exitY=0.75;exitDx=0;exitDy=0;entryX=0.5;entryY=0;entryDx=0;entryDy=0;" edge="1" parent="1" source="aDz3l9U_8TU9LJlqT8bB-56" target="ki-zjodoaLn8A9avzpk7-19">
          <mxGeometry relative="1" as="geometry" />
        </mxCell>
        <mxCell id="aDz3l9U_8TU9LJlqT8bB-56" value="movement_control" style="rounded=0;whiteSpace=wrap;html=1;fillColor=#d5e8d4;strokeColor=#82b366;" parent="1" vertex="1">
          <mxGeometry x="720" y="280" width="120" height="60" as="geometry" />
        </mxCell>
        <mxCell id="ki-zjodoaLn8A9avzpk7-32" style="edgeStyle=orthogonalEdgeStyle;rounded=0;orthogonalLoop=1;jettySize=auto;html=1;exitX=1;exitY=0.5;exitDx=0;exitDy=0;entryX=0.25;entryY=1;entryDx=0;entryDy=0;dashed=1;" edge="1" parent="1" source="aDz3l9U_8TU9LJlqT8bB-63" target="aDz3l9U_8TU9LJlqT8bB-73">
          <mxGeometry relative="1" as="geometry" />
        </mxCell>
        <mxCell id="ki-zjodoaLn8A9avzpk7-33" style="edgeStyle=orthogonalEdgeStyle;rounded=0;orthogonalLoop=1;jettySize=auto;html=1;exitX=1;exitY=0.5;exitDx=0;exitDy=0;entryX=0.25;entryY=1;entryDx=0;entryDy=0;dashed=1;" edge="1" parent="1" source="aDz3l9U_8TU9LJlqT8bB-63" target="aDz3l9U_8TU9LJlqT8bB-70">
          <mxGeometry relative="1" as="geometry" />
        </mxCell>
        <mxCell id="ki-zjodoaLn8A9avzpk7-34" style="edgeStyle=orthogonalEdgeStyle;rounded=0;orthogonalLoop=1;jettySize=auto;html=1;exitX=1;exitY=0.5;exitDx=0;exitDy=0;entryX=0.25;entryY=1;entryDx=0;entryDy=0;dashed=1;" edge="1" parent="1" source="aDz3l9U_8TU9LJlqT8bB-63" target="aDz3l9U_8TU9LJlqT8bB-72">
          <mxGeometry relative="1" as="geometry" />
        </mxCell>
        <mxCell id="aDz3l9U_8TU9LJlqT8bB-63" value="ros2_for_waveshare_alphabot2" style="rounded=0;whiteSpace=wrap;html=1;fillColor=#b0e3e6;strokeColor=#0e8088;" parent="1" vertex="1">
          <mxGeometry x="200" y="560" width="200" height="60" as="geometry" />
        </mxCell>
        <mxCell id="ki-zjodoaLn8A9avzpk7-22" style="edgeStyle=orthogonalEdgeStyle;rounded=0;orthogonalLoop=1;jettySize=auto;html=1;exitX=0.5;exitY=0;exitDx=0;exitDy=0;entryX=0.5;entryY=1;entryDx=0;entryDy=0;" edge="1" parent="1" source="aDz3l9U_8TU9LJlqT8bB-70" target="ki-zjodoaLn8A9avzpk7-20">
          <mxGeometry relative="1" as="geometry" />
        </mxCell>
        <mxCell id="aDz3l9U_8TU9LJlqT8bB-70" value="joystick" style="rounded=0;whiteSpace=wrap;html=1;fillColor=#d5e8d4;strokeColor=#82b366;" parent="1" vertex="1">
          <mxGeometry x="640" y="510" width="120" height="60" as="geometry" />
        </mxCell>
        <mxCell id="aDz3l9U_8TU9LJlqT8bB-82" style="edgeStyle=orthogonalEdgeStyle;rounded=0;orthogonalLoop=1;jettySize=auto;html=1;exitX=0.5;exitY=1;exitDx=0;exitDy=0;entryX=0.5;entryY=0;entryDx=0;entryDy=0;" parent="1" source="aDz3l9U_8TU9LJlqT8bB-72" target="aDz3l9U_8TU9LJlqT8bB-12" edge="1">
          <mxGeometry relative="1" as="geometry" />
        </mxCell>
        <mxCell id="aDz3l9U_8TU9LJlqT8bB-72" value="pan_tilt" style="rounded=0;whiteSpace=wrap;html=1;fillColor=#d5e8d4;strokeColor=#82b366;" parent="1" vertex="1">
          <mxGeometry x="800" y="510" width="120" height="60" as="geometry" />
        </mxCell>
        <mxCell id="aDz3l9U_8TU9LJlqT8bB-84" style="edgeStyle=orthogonalEdgeStyle;rounded=0;orthogonalLoop=1;jettySize=auto;html=1;exitX=0.5;exitY=1;exitDx=0;exitDy=0;entryX=0.5;entryY=0;entryDx=0;entryDy=0;" parent="1" source="aDz3l9U_8TU9LJlqT8bB-73" target="aDz3l9U_8TU9LJlqT8bB-16" edge="1">
          <mxGeometry relative="1" as="geometry" />
        </mxCell>
        <mxCell id="aDz3l9U_8TU9LJlqT8bB-73" value="motion" style="rounded=0;whiteSpace=wrap;html=1;fillColor=#d5e8d4;strokeColor=#82b366;" parent="1" vertex="1">
          <mxGeometry x="480" y="510" width="120" height="60" as="geometry" />
        </mxCell>
        <mxCell id="ki-zjodoaLn8A9avzpk7-6" style="edgeStyle=orthogonalEdgeStyle;rounded=0;orthogonalLoop=1;jettySize=auto;html=1;exitX=1;exitY=0.5;exitDx=0;exitDy=0;entryX=0;entryY=0.5;entryDx=0;entryDy=0;" edge="1" parent="1" source="ki-zjodoaLn8A9avzpk7-1" target="aDz3l9U_8TU9LJlqT8bB-31">
          <mxGeometry relative="1" as="geometry" />
        </mxCell>
        <mxCell id="ki-zjodoaLn8A9avzpk7-1" value="/image_raw" style="ellipse;whiteSpace=wrap;html=1;fillColor=#ffcc99;strokeColor=#36393d;" vertex="1" parent="1">
          <mxGeometry x="220" y="290" width="80" height="40" as="geometry" />
        </mxCell>
        <mxCell id="ki-zjodoaLn8A9avzpk7-7" style="edgeStyle=orthogonalEdgeStyle;rounded=0;orthogonalLoop=1;jettySize=auto;html=1;exitX=1;exitY=0.5;exitDx=0;exitDy=0;entryX=0.25;entryY=0;entryDx=0;entryDy=0;dashed=1;" edge="1" parent="1" source="ki-zjodoaLn8A9avzpk7-3" target="aDz3l9U_8TU9LJlqT8bB-31">
          <mxGeometry relative="1" as="geometry" />
        </mxCell>
        <mxCell id="ki-zjodoaLn8A9avzpk7-37" style="edgeStyle=orthogonalEdgeStyle;rounded=0;orthogonalLoop=1;jettySize=auto;html=1;exitX=1;exitY=0.5;exitDx=0;exitDy=0;entryX=0.25;entryY=0;entryDx=0;entryDy=0;dashed=1;" edge="1" parent="1" source="ki-zjodoaLn8A9avzpk7-3" target="aDz3l9U_8TU9LJlqT8bB-56">
          <mxGeometry relative="1" as="geometry" />
        </mxCell>
        <mxCell id="ki-zjodoaLn8A9avzpk7-3" value="camera_package" style="rounded=0;whiteSpace=wrap;html=1;fillColor=#b0e3e6;strokeColor=#0e8088;" vertex="1" parent="1">
          <mxGeometry x="200" y="210" width="120" height="60" as="geometry" />
        </mxCell>
        <mxCell id="ki-zjodoaLn8A9avzpk7-13" style="edgeStyle=orthogonalEdgeStyle;rounded=0;orthogonalLoop=1;jettySize=auto;html=1;exitX=1;exitY=0.5;exitDx=0;exitDy=0;entryX=0;entryY=0.5;entryDx=0;entryDy=0;" edge="1" parent="1" source="ki-zjodoaLn8A9avzpk7-10" target="aDz3l9U_8TU9LJlqT8bB-56">
          <mxGeometry relative="1" as="geometry" />
        </mxCell>
        <mxCell id="ki-zjodoaLn8A9avzpk7-10" value="/position_data" style="ellipse;whiteSpace=wrap;html=1;fillColor=#ffcc99;strokeColor=#36393d;" vertex="1" parent="1">
          <mxGeometry x="600" y="290" width="80" height="40" as="geometry" />
        </mxCell>
        <mxCell id="ki-zjodoaLn8A9avzpk7-24" style="edgeStyle=orthogonalEdgeStyle;rounded=0;orthogonalLoop=1;jettySize=auto;html=1;exitX=0.5;exitY=1;exitDx=0;exitDy=0;entryX=0.5;entryY=0;entryDx=0;entryDy=0;" edge="1" parent="1" source="ki-zjodoaLn8A9avzpk7-19" target="aDz3l9U_8TU9LJlqT8bB-72">
          <mxGeometry relative="1" as="geometry" />
        </mxCell>
        <mxCell id="ki-zjodoaLn8A9avzpk7-19" value="/servo" style="ellipse;whiteSpace=wrap;html=1;fillColor=#ffcc99;strokeColor=#36393d;" vertex="1" parent="1">
          <mxGeometry x="820" y="410" width="80" height="40" as="geometry" />
        </mxCell>
        <mxCell id="ki-zjodoaLn8A9avzpk7-26" style="edgeStyle=orthogonalEdgeStyle;rounded=0;orthogonalLoop=1;jettySize=auto;html=1;exitX=0.5;exitY=0;exitDx=0;exitDy=0;entryX=0;entryY=0.75;entryDx=0;entryDy=0;strokeColor=default;" edge="1" parent="1" source="ki-zjodoaLn8A9avzpk7-20" target="aDz3l9U_8TU9LJlqT8bB-56">
          <mxGeometry relative="1" as="geometry" />
        </mxCell>
        <mxCell id="ki-zjodoaLn8A9avzpk7-20" value="/joystick" style="ellipse;whiteSpace=wrap;html=1;fillColor=#ffcc99;strokeColor=#36393d;" vertex="1" parent="1">
          <mxGeometry x="660" y="410" width="80" height="40" as="geometry" />
        </mxCell>
        <mxCell id="ki-zjodoaLn8A9avzpk7-29" value="function" style="rounded=0;whiteSpace=wrap;html=1;fillColor=#dae8fc;strokeColor=#6c8ebf;" vertex="1" parent="1">
          <mxGeometry x="520" y="40" width="80" height="40" as="geometry" />
        </mxCell>
        <mxCell id="ki-zjodoaLn8A9avzpk7-30" value="package" style="rounded=0;whiteSpace=wrap;html=1;fillColor=#b0e3e6;strokeColor=#0e8088;" vertex="1" parent="1">
          <mxGeometry x="280" y="40" width="80" height="40" as="geometry" />
        </mxCell>
        <mxCell id="ki-zjodoaLn8A9avzpk7-31" value="node" style="rounded=0;whiteSpace=wrap;html=1;fillColor=#d5e8d4;strokeColor=#82b366;" vertex="1" parent="1">
          <mxGeometry x="400" y="40" width="80" height="40" as="geometry" />
        </mxCell>
        <mxCell id="ki-zjodoaLn8A9avzpk7-38" value="topics" style="ellipse;whiteSpace=wrap;html=1;fillColor=#fad7ac;strokeColor=#b46504;" vertex="1" parent="1">
          <mxGeometry x="640" y="40" width="80" height="40" as="geometry" />
        </mxCell>
        <mxCell id="ki-zjodoaLn8A9avzpk7-39" value="operating systems" style="rounded=0;whiteSpace=wrap;html=1;fillColor=#fad9d5;strokeColor=#ae4132;" vertex="1" parent="1">
          <mxGeometry x="160" y="40" width="80" height="40" as="geometry" />
        </mxCell>
        <mxCell id="ki-zjodoaLn8A9avzpk7-40" value="Hardware" style="rounded=1;whiteSpace=wrap;html=1;fillColor=#f5f5f5;fontColor=#333333;strokeColor=#666666;" vertex="1" parent="1">
          <mxGeometry x="40" y="40" width="80" height="40" as="geometry" />
        </mxCell>
        <mxCell id="ki-zjodoaLn8A9avzpk7-41" value="opencv Image" style="rounded=0;whiteSpace=wrap;html=1;" vertex="1" parent="1">
          <mxGeometry x="530" y="200" width="80" height="20" as="geometry" />
        </mxCell>
        <mxCell id="ki-zjodoaLn8A9avzpk7-42" value="Ros2 Image" style="rounded=0;whiteSpace=wrap;html=1;" vertex="1" parent="1">
          <mxGeometry x="420" y="200" width="80" height="20" as="geometry" />
        </mxCell>
        <mxCell id="ki-zjodoaLn8A9avzpk7-44" value="coordinates" style="rounded=0;whiteSpace=wrap;html=1;" vertex="1" parent="1">
          <mxGeometry x="530" y="360" width="80" height="20" as="geometry" />
        </mxCell>
        <mxCell id="ki-zjodoaLn8A9avzpk7-45" value="opencv Image" style="rounded=0;whiteSpace=wrap;html=1;" vertex="1" parent="1">
          <mxGeometry x="420" y="360" width="80" height="20" as="geometry" />
        </mxCell>
        <mxCell id="ki-zjodoaLn8A9avzpk7-46" value="acceses camera" style="rounded=0;whiteSpace=wrap;html=1;" vertex="1" parent="1">
          <mxGeometry x="260" y="430" width="100" height="20" as="geometry" />
        </mxCell>
        <mxCell id="ki-zjodoaLn8A9avzpk7-47" value="Steuert" style="rounded=0;whiteSpace=wrap;html=1;" vertex="1" parent="1">
          <mxGeometry x="540" y="600" width="80" height="20" as="geometry" />
        </mxCell>
        <mxCell id="ki-zjodoaLn8A9avzpk7-48" value="Steuert" style="rounded=0;whiteSpace=wrap;html=1;" vertex="1" parent="1">
          <mxGeometry x="860" y="600" width="80" height="20" as="geometry" />
        </mxCell>
        <mxCell id="ki-zjodoaLn8A9avzpk7-49" value="empfängt signale" style="rounded=0;whiteSpace=wrap;html=1;" vertex="1" parent="1">
          <mxGeometry x="700" y="600" width="100" height="20" as="geometry" />
        </mxCell>
        <mxCell id="ki-zjodoaLn8A9avzpk7-52" style="edgeStyle=orthogonalEdgeStyle;rounded=0;orthogonalLoop=1;jettySize=auto;html=1;" edge="1" parent="1">
          <mxGeometry relative="1" as="geometry">
            <mxPoint x="800" y="49.8" as="targetPoint" />
            <mxPoint x="760" y="49.8" as="sourcePoint" />
            <Array as="points">
              <mxPoint x="790" y="49.8" />
              <mxPoint x="790" y="49.8" />
            </Array>
          </mxGeometry>
        </mxCell>
        <mxCell id="ki-zjodoaLn8A9avzpk7-53" value="data stream" style="rounded=0;whiteSpace=wrap;html=1;" vertex="1" parent="1">
          <mxGeometry x="820" y="40" width="80" height="20" as="geometry" />
        </mxCell>
        <mxCell id="ki-zjodoaLn8A9avzpk7-54" style="edgeStyle=orthogonalEdgeStyle;rounded=0;orthogonalLoop=1;jettySize=auto;html=1;dashed=1;" edge="1" parent="1">
          <mxGeometry relative="1" as="geometry">
            <mxPoint x="800" y="79.8" as="targetPoint" />
            <mxPoint x="760" y="79.8" as="sourcePoint" />
            <Array as="points">
              <mxPoint x="790" y="79.8" />
              <mxPoint x="790" y="79.8" />
            </Array>
          </mxGeometry>
        </mxCell>
        <mxCell id="ki-zjodoaLn8A9avzpk7-55" value="relation" style="rounded=0;whiteSpace=wrap;html=1;" vertex="1" parent="1">
          <mxGeometry x="820" y="70" width="80" height="20" as="geometry" />
        </mxCell>
      </root>
    </mxGraphModel>
  </diagram>
</mxfile>
